<svg width="134.55" height="27.2" viewBox="0 0 134.55 27.2" xmlns="http://www.w3.org/2000/svg"><g id="svgGroup" stroke-linecap="round" fill-rule="evenodd" font-size="9pt" stroke="#000" stroke-width="0.25mm" fill="" style="stroke:#000;stroke-width:0.25mm;fill:"><path d="M 27.175 20.825 L 22.5 20.4 A 1.774 1.774 0 0 1 21.383 19.8 A 2.465 2.465 0 0 1 21.213 19.588 A 3.195 3.195 0 0 1 20.905 19.069 Q 20.753 18.741 20.714 18.421 A 1.814 1.814 0 0 1 20.7 18.2 L 22.375 15.425 A 4.614 4.614 0 0 1 21.182 14.475 A 4.187 4.187 0 0 1 20.638 13.7 A 4.786 4.786 0 0 1 20.133 12.337 A 4.274 4.274 0 0 1 20.05 11.5 Q 20.05 9.375 21.625 8.075 Q 23.2 6.775 25.25 6.775 A 6.286 6.286 0 0 1 27.348 7.117 A 5.667 5.667 0 0 1 28.725 7.825 A 7.257 7.257 0 0 1 28.871 6.57 Q 29.343 4.375 31.275 4.275 A 0.751 0.751 0 0 1 31.839 4.78 Q 31.896 4.934 31.915 5.131 A 2.248 2.248 0 0 1 31.925 5.35 Q 31.925 5.85 31.825 6.45 A 3.086 3.086 0 0 0 31.045 6.607 A 2.382 2.382 0 0 0 30.225 7.087 A 3.446 3.446 0 0 0 29.555 7.896 A 3.107 3.107 0 0 0 29.325 8.375 A 4.702 4.702 0 0 1 29.344 8.395 Q 30.527 9.591 30.573 11.356 A 5.518 5.518 0 0 1 30.575 11.5 A 4.025 4.025 0 0 1 29.261 14.536 A 5.315 5.315 0 0 1 28.975 14.788 Q 27.375 16.1 25.25 16.1 A 7.261 7.261 0 0 1 24.15 16.02 A 5.606 5.606 0 0 1 23.225 15.8 L 22.375 18.025 L 28.6 18.65 A 4.377 4.377 0 0 1 29.553 18.868 Q 30.252 19.118 30.718 19.608 A 2.761 2.761 0 0 1 30.813 19.712 A 3.079 3.079 0 0 1 31.485 21.109 A 4.428 4.428 0 0 1 31.575 22.025 A 5.53 5.53 0 0 1 31.343 23.672 A 4.24 4.24 0 0 1 29.775 25.863 A 6.275 6.275 0 0 1 27.732 26.844 Q 26.486 27.2 24.9 27.2 Q 23.227 27.2 22.038 26.802 A 4.882 4.882 0 0 1 20.925 26.275 A 3.507 3.507 0 0 1 20.114 25.565 A 2.697 2.697 0 0 1 19.5 23.8 Q 19.5 22.75 20.175 21.938 Q 20.85 21.125 21.85 20.9 A 0.592 0.592 0 0 1 22.041 21.04 Q 22.144 21.15 22.225 21.325 Q 21.418 21.985 21.4 23.292 A 4.346 4.346 0 0 0 21.4 23.35 A 2.13 2.13 0 0 0 22.154 25.012 A 3.062 3.062 0 0 0 22.5 25.275 A 4.12 4.12 0 0 0 23.763 25.819 Q 24.297 25.955 24.923 25.989 A 7.882 7.882 0 0 0 25.35 26 A 8.13 8.13 0 0 0 26.616 25.907 Q 27.323 25.795 27.91 25.55 A 4.516 4.516 0 0 0 28.35 25.337 A 2.782 2.782 0 0 0 28.976 24.877 A 1.906 1.906 0 0 0 29.55 23.475 A 5.666 5.666 0 0 0 29.512 22.798 Q 29.425 22.075 29.135 21.645 A 1.559 1.559 0 0 0 29.075 21.563 Q 28.653 21.019 27.484 20.859 A 6.46 6.46 0 0 0 27.175 20.825 Z M 5.625 13.3 L 3.4 19.525 L 5.425 19.775 A 1.46 1.46 0 0 1 5.467 20.013 Q 5.495 20.312 5.425 20.698 A 3.329 3.329 0 0 1 5.425 20.7 A 80.745 80.745 0 0 0 4.314 20.654 Q 3.447 20.625 2.775 20.625 Q 2.175 20.625 0.075 20.675 A 1.417 1.417 0 0 1 0 20.232 Q -0.001 20.004 0.074 19.777 A 2.261 2.261 0 0 1 0.075 19.775 L 1.725 19.475 A 4.113 4.113 0 0 0 1.938 19.111 Q 2.268 18.483 2.705 17.304 A 35.254 35.254 0 0 0 2.725 17.25 L 9.175 0 L 10.05 0 L 17.3 19.525 L 19.325 19.775 A 1.46 1.46 0 0 1 19.367 20.013 Q 19.395 20.312 19.325 20.698 A 3.329 3.329 0 0 1 19.325 20.7 Q 17.75 20.625 15.8 20.625 Q 14.803 20.625 13.499 20.649 A 220.178 220.178 0 0 0 12.25 20.675 A 1.417 1.417 0 0 1 12.175 20.232 Q 12.174 20.004 12.249 19.777 A 2.261 2.261 0 0 1 12.25 19.775 L 14.325 19.475 L 12.125 13.3 L 5.625 13.3 Z M 76.275 7.275 L 76.275 17.075 A 59.192 59.192 0 0 0 76.28 17.85 Q 76.292 18.806 76.339 19.312 A 5.893 5.893 0 0 0 76.35 19.425 L 78.325 19.675 A 2.179 2.179 0 0 1 78.357 19.939 Q 78.37 20.149 78.351 20.392 A 4.342 4.342 0 0 1 78.325 20.625 Q 76.5 20.7 74.525 20.975 Q 74.355 20.805 74.279 20.516 A 1.482 1.482 0 0 1 74.275 20.5 L 74.15 18.275 A 11.852 11.852 0 0 1 73.219 19.341 Q 72.613 19.953 71.988 20.375 Q 70.875 21.125 69.375 21.125 A 4.979 4.979 0 0 1 68.175 20.987 A 3.763 3.763 0 0 1 66.813 20.35 A 2.361 2.361 0 0 1 66.011 19.237 Q 65.863 18.835 65.808 18.335 A 5.79 5.79 0 0 1 65.775 17.7 L 65.775 12.15 A 175.437 175.437 0 0 0 65.772 11.153 Q 65.761 9.15 65.7 8.5 L 63.725 8.25 Q 63.627 7.881 63.722 7.318 A 4.143 4.143 0 0 1 63.725 7.3 A 36.376 36.376 0 0 0 65.075 7.175 Q 66.375 7.031 68.025 6.775 A 1.238 1.238 0 0 1 68.158 6.951 Q 68.224 7.057 68.254 7.164 A 0.66 0.66 0 0 1 68.275 7.275 A 2.714 2.714 0 0 0 68.246 7.561 Q 68.156 8.898 68.15 15.511 A 1073.486 1073.486 0 0 0 68.15 16.45 A 11.858 11.858 0 0 0 68.176 17.262 Q 68.253 18.384 68.563 18.938 A 1.353 1.353 0 0 0 69.397 19.584 Q 69.646 19.658 69.953 19.672 A 3.222 3.222 0 0 0 70.1 19.675 Q 71.863 19.675 73.343 17.914 A 9.087 9.087 0 0 0 73.9 17.175 L 73.9 12.125 A 172.503 172.503 0 0 0 73.897 11.137 Q 73.886 9.15 73.825 8.5 L 71.85 8.25 Q 71.752 7.881 71.847 7.318 A 4.143 4.143 0 0 1 71.85 7.3 A 24.36 24.36 0 0 0 72.673 7.23 Q 74.019 7.094 76.025 6.775 A 1.238 1.238 0 0 1 76.158 6.951 Q 76.224 7.057 76.254 7.164 A 0.66 0.66 0 0 1 76.275 7.275 Z M 108.025 7.275 L 108.025 17.075 A 59.192 59.192 0 0 0 108.03 17.85 Q 108.042 18.806 108.089 19.312 A 5.893 5.893 0 0 0 108.1 19.425 L 110.075 19.675 A 2.179 2.179 0 0 1 110.107 19.939 Q 110.12 20.149 110.101 20.392 A 4.342 4.342 0 0 1 110.075 20.625 Q 108.25 20.7 106.275 20.975 Q 106.105 20.805 106.029 20.516 A 1.482 1.482 0 0 1 106.025 20.5 L 105.9 18.275 A 11.852 11.852 0 0 1 104.969 19.341 Q 104.363 19.953 103.738 20.375 Q 102.625 21.125 101.125 21.125 A 4.979 4.979 0 0 1 99.925 20.987 A 3.763 3.763 0 0 1 98.563 20.35 A 2.361 2.361 0 0 1 97.761 19.237 Q 97.613 18.835 97.558 18.335 A 5.79 5.79 0 0 1 97.525 17.7 L 97.525 12.15 A 175.437 175.437 0 0 0 97.522 11.153 Q 97.511 9.15 97.45 8.5 L 95.475 8.25 Q 95.377 7.881 95.472 7.318 A 4.143 4.143 0 0 1 95.475 7.3 A 36.376 36.376 0 0 0 96.825 7.175 Q 98.125 7.031 99.775 6.775 A 1.238 1.238 0 0 1 99.908 6.951 Q 99.974 7.057 100.004 7.164 A 0.66 0.66 0 0 1 100.025 7.275 A 2.714 2.714 0 0 0 99.996 7.561 Q 99.906 8.898 99.9 15.511 A 1073.486 1073.486 0 0 0 99.9 16.45 A 11.858 11.858 0 0 0 99.926 17.262 Q 100.003 18.384 100.313 18.938 A 1.353 1.353 0 0 0 101.147 19.584 Q 101.396 19.658 101.703 19.672 A 3.222 3.222 0 0 0 101.85 19.675 Q 103.613 19.675 105.093 17.914 A 9.087 9.087 0 0 0 105.65 17.175 L 105.65 12.125 A 172.503 172.503 0 0 0 105.647 11.137 Q 105.636 9.15 105.575 8.5 L 103.6 8.25 Q 103.502 7.881 103.597 7.318 A 4.143 4.143 0 0 1 103.6 7.3 A 24.36 24.36 0 0 0 104.423 7.23 Q 105.769 7.094 107.775 6.775 A 1.238 1.238 0 0 1 107.908 6.951 Q 107.974 7.057 108.004 7.164 A 0.66 0.66 0 0 1 108.025 7.275 Z M 130.075 13.075 L 130.075 11.8 A 14.78 14.78 0 0 0 130.041 10.753 Q 129.968 9.732 129.741 9.078 A 2.953 2.953 0 0 0 129.588 8.713 A 1.806 1.806 0 0 0 129.127 8.121 Q 128.773 7.831 128.269 7.768 A 2.352 2.352 0 0 0 127.975 7.75 A 2.916 2.916 0 0 0 127.145 7.863 A 2.271 2.271 0 0 0 126.125 8.487 Q 125.488 9.159 125.223 10.69 A 10.12 10.12 0 0 0 125.175 11 A 13.488 13.488 0 0 1 124.802 11.077 Q 124.281 11.175 124 11.175 A 2.042 2.042 0 0 1 123.593 11.138 Q 123.372 11.093 123.214 10.993 A 0.82 0.82 0 0 1 122.85 10.475 A 3.037 3.037 0 0 1 123.899 8.106 A 4.067 4.067 0 0 1 124.325 7.775 Q 125.8 6.775 128 6.775 Q 130.425 6.775 131.438 7.762 Q 132.45 8.75 132.45 11.3 L 132.45 18.35 A 8.741 8.741 0 0 0 132.462 18.829 Q 132.475 19.055 132.5 19.252 A 4.462 4.462 0 0 0 132.525 19.425 L 134.5 19.675 Q 134.598 20.044 134.503 20.607 A 4.143 4.143 0 0 1 134.5 20.625 Q 132.725 20.7 130.725 20.975 A 0.885 0.885 0 0 1 130.484 20.522 A 1.094 1.094 0 0 1 130.475 20.475 L 130.35 18.75 A 8.272 8.272 0 0 1 128.902 20.078 A 5.409 5.409 0 0 1 125.725 21.125 A 4.446 4.446 0 0 1 124.723 21.019 Q 123.941 20.838 123.393 20.35 A 2.816 2.816 0 0 1 123.263 20.225 A 3.003 3.003 0 0 1 122.462 18.692 A 4.366 4.366 0 0 1 122.375 17.8 Q 122.375 15.777 123.989 14.625 A 5.219 5.219 0 0 1 124.463 14.325 Q 126.55 13.15 130.075 13.075 Z M 62.525 10.475 Q 62 11.025 60.05 11 A 8.128 8.128 0 0 0 59.829 9.86 Q 59.475 8.581 58.739 8.116 A 1.766 1.766 0 0 0 57.775 7.85 A 2.447 2.447 0 0 0 56.107 8.514 Q 55.659 8.913 55.275 9.55 A 6.525 6.525 0 0 0 54.559 11.303 Q 54.351 12.109 54.283 13.06 A 13.532 13.532 0 0 0 54.25 14.025 A 14.521 14.521 0 0 0 54.336 15.659 Q 54.426 16.451 54.61 17.106 A 5.569 5.569 0 0 0 55.15 18.413 Q 55.969 19.811 57.532 19.937 A 3.946 3.946 0 0 0 57.85 19.95 A 4.982 4.982 0 0 0 60.109 19.389 Q 60.799 19.042 61.478 18.481 A 9.178 9.178 0 0 0 61.575 18.4 A 1.158 1.158 0 0 1 61.92 18.725 Q 62.021 18.866 62.1 19.049 A 2.307 2.307 0 0 1 62.15 19.175 A 5.969 5.969 0 0 1 57.831 21.121 A 7.578 7.578 0 0 1 57.575 21.125 A 6.194 6.194 0 0 1 55.408 20.759 A 5.462 5.462 0 0 1 53.275 19.313 A 5.759 5.759 0 0 1 52.052 17.175 Q 51.6 15.806 51.6 13.975 Q 51.6 10.6 53.463 8.688 A 6.753 6.753 0 0 1 55.097 7.432 A 5.466 5.466 0 0 1 57.725 6.775 A 6.44 6.44 0 0 1 59.694 7.067 A 5.636 5.636 0 0 1 61.075 7.725 A 3.17 3.17 0 0 1 62.113 8.797 Q 62.461 9.403 62.515 10.181 A 4.219 4.219 0 0 1 62.525 10.475 Z M 37.275 7.275 L 37.225 9.85 A 7.229 7.229 0 0 1 38.375 8.294 A 8.777 8.777 0 0 1 38.963 7.738 A 5.295 5.295 0 0 1 39.63 7.24 Q 40.005 7.008 40.366 6.891 A 2.305 2.305 0 0 1 41.075 6.775 Q 41.837 6.775 42.43 6.944 A 3.605 3.605 0 0 1 42.45 6.95 A 1.243 1.243 0 0 1 42.593 7.295 Q 42.65 7.519 42.65 7.8 A 4.107 4.107 0 0 1 42.401 9.192 A 4.816 4.816 0 0 1 42.3 9.45 A 6.93 6.93 0 0 0 41.218 9.237 A 5.766 5.766 0 0 0 40.575 9.2 A 3.691 3.691 0 0 0 37.768 10.47 A 5.765 5.765 0 0 0 37.2 11.2 L 37.15 15.575 L 37.15 19.35 L 39.925 19.725 A 1.637 1.637 0 0 1 39.965 19.966 Q 39.997 20.29 39.927 20.716 A 4.383 4.383 0 0 1 39.925 20.725 A 61.775 61.775 0 0 0 38.461 20.674 Q 37.713 20.656 36.886 20.651 A 104.295 104.295 0 0 0 36.325 20.65 A 114.065 114.065 0 0 0 35.1 20.657 Q 34.556 20.663 33.956 20.674 A 213.084 213.084 0 0 0 32.7 20.7 Q 32.559 20.255 32.682 19.787 A 1.908 1.908 0 0 1 32.7 19.725 L 34.675 19.45 Q 34.761 18.268 34.773 16.773 A 61.621 61.621 0 0 0 34.775 16.275 L 34.775 9.425 A 5.876 5.876 0 0 0 34.751 8.886 A 4.709 4.709 0 0 0 34.7 8.5 L 32.725 8.25 Q 32.627 7.881 32.722 7.318 A 4.143 4.143 0 0 1 32.725 7.3 A 36.376 36.376 0 0 0 34.075 7.175 Q 35.375 7.031 37.025 6.775 A 1.238 1.238 0 0 1 37.158 6.951 Q 37.224 7.057 37.254 7.164 A 0.66 0.66 0 0 1 37.275 7.275 Z M 115.825 7.275 L 115.775 9.85 A 7.229 7.229 0 0 1 116.925 8.294 A 8.777 8.777 0 0 1 117.513 7.738 A 5.295 5.295 0 0 1 118.18 7.24 Q 118.555 7.008 118.916 6.891 A 2.305 2.305 0 0 1 119.625 6.775 Q 120.387 6.775 120.98 6.944 A 3.605 3.605 0 0 1 121 6.95 A 1.243 1.243 0 0 1 121.143 7.295 Q 121.2 7.519 121.2 7.8 A 4.107 4.107 0 0 1 120.951 9.192 A 4.816 4.816 0 0 1 120.85 9.45 A 6.93 6.93 0 0 0 119.768 9.237 A 5.766 5.766 0 0 0 119.125 9.2 A 3.691 3.691 0 0 0 116.318 10.47 A 5.765 5.765 0 0 0 115.75 11.2 L 115.7 15.575 L 115.7 19.35 L 118.475 19.725 A 1.637 1.637 0 0 1 118.515 19.966 Q 118.547 20.29 118.477 20.716 A 4.383 4.383 0 0 1 118.475 20.725 A 61.775 61.775 0 0 0 117.011 20.674 Q 116.263 20.656 115.436 20.651 A 104.295 104.295 0 0 0 114.875 20.65 A 114.065 114.065 0 0 0 113.65 20.657 Q 113.106 20.663 112.506 20.674 A 213.084 213.084 0 0 0 111.25 20.7 Q 111.109 20.255 111.232 19.787 A 1.908 1.908 0 0 1 111.25 19.725 L 113.225 19.45 Q 113.311 18.268 113.323 16.773 A 61.621 61.621 0 0 0 113.325 16.275 L 113.325 9.425 A 5.876 5.876 0 0 0 113.301 8.886 A 4.709 4.709 0 0 0 113.25 8.5 L 111.275 8.25 Q 111.177 7.881 111.272 7.318 A 4.143 4.143 0 0 1 111.275 7.3 A 36.376 36.376 0 0 0 112.625 7.175 Q 113.925 7.031 115.575 6.775 A 1.238 1.238 0 0 1 115.708 6.951 Q 115.774 7.057 115.804 7.164 A 0.66 0.66 0 0 1 115.825 7.275 Z M 83.675 4.775 L 83.675 19.35 L 85.7 19.725 A 1.637 1.637 0 0 1 85.74 19.966 Q 85.772 20.29 85.702 20.716 A 4.383 4.383 0 0 1 85.7 20.725 Q 84.125 20.65 82.475 20.65 Q 81.595 20.65 80.157 20.679 A 273.509 273.509 0 0 0 79.225 20.7 Q 79.084 20.255 79.207 19.787 A 1.908 1.908 0 0 1 79.225 19.725 L 81.2 19.45 Q 81.286 18.268 81.298 16.773 A 61.621 61.621 0 0 0 81.3 16.275 L 81.3 1.95 L 79.25 1.7 Q 79.152 1.331 79.247 0.768 A 4.143 4.143 0 0 1 79.25 0.75 A 36.376 36.376 0 0 0 80.6 0.625 Q 81.9 0.481 83.55 0.225 A 1.238 1.238 0 0 1 83.683 0.401 Q 83.749 0.507 83.779 0.614 A 0.66 0.66 0 0 1 83.8 0.725 Q 83.675 1.375 83.675 4.775 Z M 90.975 4.275 L 90.975 7.85 L 94.5 7.85 Q 94.54 8.093 94.548 8.237 A 1.184 1.184 0 0 1 94.55 8.3 Q 94.55 8.488 94.515 8.729 A 4.679 4.679 0 0 1 94.5 8.825 L 90.975 9.35 L 90.975 16.225 Q 90.975 18.075 91.313 18.838 A 1.615 1.615 0 0 0 91.533 19.206 A 1.034 1.034 0 0 0 92.375 19.6 Q 93.025 19.6 94.4 19.075 A 0.747 0.747 0 0 1 94.548 19.266 Q 94.658 19.462 94.724 19.779 A 3.402 3.402 0 0 1 94.75 19.925 Q 94 20.375 93.613 20.588 A 3.431 3.431 0 0 1 93.265 20.752 Q 93.091 20.823 92.889 20.888 A 6.627 6.627 0 0 1 92.638 20.963 Q 92.05 21.125 91.4 21.125 Q 90.15 21.125 89.363 20.163 Q 88.798 19.472 88.638 18.26 A 7.947 7.947 0 0 1 88.575 17.225 L 88.575 9.05 L 86.825 8.825 A 3.14 3.14 0 0 1 86.795 8.65 Q 86.775 8.51 86.775 8.4 A 2.227 2.227 0 0 1 86.78 8.261 Q 86.791 8.091 86.825 7.85 Q 87.525 7.725 88.038 7.413 A 2.546 2.546 0 0 0 88.76 6.744 A 3.084 3.084 0 0 0 88.9 6.538 A 10.32 10.32 0 0 0 89.14 6.133 Q 89.253 5.932 89.341 5.749 A 5.153 5.153 0 0 0 89.438 5.538 A 8.396 8.396 0 0 0 89.537 5.295 Q 89.645 5.019 89.776 4.64 A 32.444 32.444 0 0 0 89.9 4.275 A 1.336 1.336 0 0 1 90.112 4.224 Q 90.265 4.2 90.45 4.2 A 2.038 2.038 0 0 1 90.698 4.214 Q 90.83 4.231 90.943 4.265 A 1.211 1.211 0 0 1 90.975 4.275 Z M 48.025 11.325 L 48.025 19.35 L 50.05 19.725 A 3.792 3.792 0 0 1 50.071 19.837 Q 50.08 19.889 50.086 19.937 A 2.238 2.238 0 0 1 50.087 19.95 Q 50.1 20.05 50.1 20.175 Q 50.1 20.267 50.093 20.366 A 3.239 3.239 0 0 1 50.087 20.438 Q 50.075 20.575 50.05 20.725 Q 48.475 20.65 46.825 20.65 Q 46.25 20.65 45.438 20.663 A 179.649 179.649 0 0 0 44.681 20.676 Q 44.294 20.683 43.866 20.693 A 307.194 307.194 0 0 0 43.575 20.7 A 1.492 1.492 0 0 1 43.5 20.227 A 1.588 1.588 0 0 1 43.5 20.225 A 1.599 1.599 0 0 1 43.518 19.991 Q 43.535 19.88 43.566 19.76 A 2.68 2.68 0 0 1 43.575 19.725 L 45.55 19.45 A 35.348 35.348 0 0 0 45.603 18.541 A 42.008 42.008 0 0 0 45.625 17.963 Q 45.65 17.175 45.65 16.275 L 45.65 10.95 A 59.391 59.391 0 0 0 45.645 10.178 Q 45.631 9.1 45.575 8.5 L 43.6 8.25 A 0.49 0.49 0 0 1 43.577 8.171 Q 43.55 8.045 43.55 7.825 L 43.55 7.575 Q 43.55 7.458 43.594 7.319 A 1.236 1.236 0 0 1 43.6 7.3 A 27.834 27.834 0 0 0 44.875 7.193 Q 46.194 7.054 47.9 6.775 A 1.238 1.238 0 0 1 48.033 6.951 Q 48.099 7.057 48.129 7.164 A 0.66 0.66 0 0 1 48.15 7.275 A 4.096 4.096 0 0 0 48.108 7.631 Q 48.032 8.526 48.026 10.905 A 166.191 166.191 0 0 0 48.025 11.325 Z M 8.95 3.775 L 8.925 3.775 A 21.39 21.39 0 0 1 8.701 4.58 Q 8.433 5.48 8.011 6.678 A 71.492 71.492 0 0 1 7.95 6.85 L 6.075 12.05 L 11.675 12.05 L 9.85 6.85 Q 9.325 5.325 8.95 3.775 Z M 22.3 11.5 A 4.308 4.308 0 0 0 22.489 12.8 A 3.632 3.632 0 0 0 23.113 13.975 A 2.585 2.585 0 0 0 24.986 14.988 A 3.339 3.339 0 0 0 25.275 15 A 2.813 2.813 0 0 0 26.513 14.732 A 2.823 2.823 0 0 0 27.45 13.988 A 3.61 3.61 0 0 0 28.275 11.993 A 4.737 4.737 0 0 0 28.3 11.5 A 5.04 5.04 0 0 0 28.156 10.267 A 3.764 3.764 0 0 0 27.463 8.837 Q 26.625 7.775 25.275 7.775 A 2.552 2.552 0 0 0 23.341 8.628 A 3.511 3.511 0 0 0 23.15 8.85 Q 22.3 9.925 22.3 11.5 Z M 130.075 17.875 L 130.075 13.975 Q 127.559 14.122 126.189 14.853 A 4.497 4.497 0 0 0 126.125 14.887 A 2.684 2.684 0 0 0 125.224 15.669 Q 124.75 16.332 124.75 17.3 A 5.679 5.679 0 0 0 124.78 17.902 Q 124.869 18.734 125.225 19.138 A 1.458 1.458 0 0 0 125.849 19.545 Q 126.09 19.629 126.387 19.659 A 3.402 3.402 0 0 0 126.725 19.675 Q 127.475 19.675 128.388 19.213 A 5.362 5.362 0 0 0 129.571 18.387 A 6.667 6.667 0 0 0 130.075 17.875 Z M 44.375 2.4 Q 44.325 2.275 44.325 2.137 L 44.325 1.875 A 1.265 1.265 0 0 1 44.748 0.902 A 1.648 1.648 0 0 1 44.888 0.788 A 2.1 2.1 0 0 1 45.779 0.416 A 2.86 2.86 0 0 1 46.275 0.375 A 2.118 2.118 0 0 1 46.852 0.45 A 1.619 1.619 0 0 1 47.538 0.837 Q 48.025 1.3 48.025 2.1 A 1.203 1.203 0 0 1 47.613 3.029 A 1.636 1.636 0 0 1 47.463 3.15 A 2.073 2.073 0 0 1 46.731 3.473 Q 46.448 3.54 46.12 3.549 A 3.718 3.718 0 0 1 46.025 3.55 A 2.039 2.039 0 0 1 45.381 3.451 A 1.811 1.811 0 0 1 44.963 3.25 Q 44.5 2.95 44.375 2.4 Z" vector-effect="non-scaling-stroke"/></g></svg>