<svg width="135.226" height="26.901" viewBox="0 0 135.226 26.901" xmlns="http://www.w3.org/2000/svg"><g id="svgGroup" stroke-linecap="round" fill-rule="evenodd" font-size="9pt" stroke="#000" stroke-width="0.25mm" fill="" style="stroke:#000;stroke-width:0.25mm;fill:"><path d="M 108.1 16.326 L 108.1 1.951 L 100.55 21.151 L 99.9 21.151 L 92.625 2.576 L 92.625 16.326 A 63.724 63.724 0 0 0 92.631 17.249 Q 92.65 18.538 92.725 19.251 L 95.05 19.551 A 1.417 1.417 0 0 1 95.125 19.994 Q 95.126 20.221 95.051 20.449 A 2.261 2.261 0 0 1 95.05 20.451 Q 92.9 20.401 92 20.401 Q 90.5 20.401 88.975 20.476 Q 88.875 19.926 88.975 19.551 L 91.25 19.301 L 91.25 4.576 A 63.72 63.72 0 0 0 91.244 3.652 Q 91.225 2.363 91.15 1.651 L 89.075 1.351 Q 88.929 0.936 89.068 0.521 A 1.425 1.425 0 0 1 89.075 0.501 L 94.575 0.501 L 100.85 16.951 L 107.275 0.501 A 18.669 18.669 0 0 0 107.6 0.512 Q 108.137 0.525 109.004 0.526 A 78.129 78.129 0 0 0 109.025 0.526 A 10.093 10.093 0 0 0 109.141 0.524 Q 109.649 0.517 112.077 0.468 A 4403.192 4403.192 0 0 0 112.95 0.451 A 1.417 1.417 0 0 1 113.025 0.894 Q 113.026 1.122 112.95 1.351 L 110.875 1.651 A 12.774 12.774 0 0 0 110.831 2.19 Q 110.775 3.094 110.775 4.576 L 110.775 19.301 L 112.8 19.551 A 1.46 1.46 0 0 1 112.842 19.789 Q 112.87 20.088 112.8 20.473 A 3.329 3.329 0 0 1 112.8 20.476 A 64.106 64.106 0 0 0 111.156 20.419 A 81.452 81.452 0 0 0 109.375 20.401 Q 108.167 20.401 106.36 20.441 A 259.494 259.494 0 0 0 105.925 20.451 Q 105.79 19.887 105.899 19.608 A 0.495 0.495 0 0 1 105.925 19.551 L 108 19.251 A 12.773 12.773 0 0 0 108.044 18.712 Q 108.1 17.807 108.1 16.326 Z M 54.275 20.851 L 53.625 18.801 Q 51.306 20.48 49.114 20.816 A 7.172 7.172 0 0 1 48.025 20.901 A 11.413 11.413 0 0 1 45.882 20.709 A 8.499 8.499 0 0 1 43.75 20.013 A 9.117 9.117 0 0 1 41.407 18.399 A 8.409 8.409 0 0 1 40.725 17.663 Q 39.525 16.201 38.938 14.338 Q 38.35 12.476 38.35 10.526 Q 38.35 8.551 39.038 6.663 Q 39.725 4.776 41.063 3.301 A 10.189 10.189 0 0 1 43.969 1.089 A 11.722 11.722 0 0 1 44.325 0.913 A 9.39 9.39 0 0 1 47.088 0.108 A 12.034 12.034 0 0 1 48.725 0.001 A 13.789 13.789 0 0 1 54.062 1.029 A 13.28 13.28 0 0 1 55.075 1.501 L 55.075 6.301 A 6.144 6.144 0 0 1 54.7 6.352 Q 54.472 6.376 54.275 6.376 A 3.102 3.102 0 0 1 54.014 6.365 Q 53.807 6.348 53.65 6.301 L 52.85 2.126 A 5.798 5.798 0 0 0 51.348 1.478 Q 50.102 1.126 48.425 1.126 A 5.996 5.996 0 0 0 46.498 1.429 A 5.466 5.466 0 0 0 45.575 1.838 Q 44.3 2.551 43.375 3.763 A 8.53 8.53 0 0 0 42.265 5.726 A 10.334 10.334 0 0 0 41.95 6.613 A 11.655 11.655 0 0 0 41.462 9.528 A 13.335 13.335 0 0 0 41.45 10.101 Q 41.45 12.076 41.913 13.751 A 10.59 10.59 0 0 0 42.513 15.403 A 8.4 8.4 0 0 0 43.225 16.651 A 6.42 6.42 0 0 0 44.686 18.173 A 5.966 5.966 0 0 0 45.288 18.563 A 5.333 5.333 0 0 0 47.721 19.245 A 6.376 6.376 0 0 0 48 19.251 A 9.262 9.262 0 0 0 51.743 18.442 A 11.42 11.42 0 0 0 52.775 17.926 L 52.775 12.601 L 50.75 12.351 Q 50.709 12.248 50.702 12.046 A 2.595 2.595 0 0 1 50.7 11.951 L 50.7 11.701 Q 50.7 11.583 50.744 11.444 A 1.236 1.236 0 0 1 50.75 11.426 A 32.653 32.653 0 0 0 51.484 11.469 A 42.583 42.583 0 0 0 52.288 11.501 Q 53.098 11.525 54.108 11.526 A 87.22 87.22 0 0 0 54.175 11.526 A 80.001 80.001 0 0 0 56.378 11.496 A 67.27 67.27 0 0 0 57.625 11.451 A 1.417 1.417 0 0 1 57.7 11.894 A 1.343 1.343 0 0 1 57.7 11.901 A 1.415 1.415 0 0 1 57.626 12.349 A 2.261 2.261 0 0 1 57.625 12.351 L 55.55 12.651 A 11.644 11.644 0 0 0 55.517 13.024 Q 55.491 13.386 55.475 13.851 A 37.463 37.463 0 0 0 55.46 14.433 Q 55.45 14.951 55.45 15.576 L 55.45 18.101 L 55.2 20.851 A 0.482 0.482 0 0 1 55.088 20.891 A 0.408 0.408 0 0 1 55 20.901 L 54.775 20.901 L 54.525 20.901 A 0.659 0.659 0 0 1 54.306 20.862 A 0.761 0.761 0 0 1 54.275 20.851 Z M 74.3 14.051 L 74.3 1.601 L 72.275 1.351 L 72.275 0.426 Q 73.65 0.526 74.8 0.526 A 30.741 30.741 0 0 0 75.316 0.521 Q 76.15 0.507 77.35 0.451 L 77.35 1.351 L 75.775 1.651 Q 75.675 2.601 75.675 4.576 L 75.675 13.901 A 13.198 13.198 0 0 1 75.486 15.848 Q 75.308 16.839 74.971 17.632 A 5.4 5.4 0 0 1 74 19.176 A 4.451 4.451 0 0 1 72.407 20.26 Q 71.034 20.837 68.946 20.894 A 17.122 17.122 0 0 1 68.475 20.901 A 11.871 11.871 0 0 1 65.618 20.588 Q 61.888 19.66 61.187 15.978 A 9.913 9.913 0 0 1 61.025 14.126 L 61.025 1.601 L 59 1.351 A 1.46 1.46 0 0 1 58.958 1.113 Q 58.93 0.813 59 0.428 A 3.329 3.329 0 0 1 59 0.426 Q 59.94 0.494 61.195 0.516 A 71.543 71.543 0 0 0 62.425 0.526 A 80.001 80.001 0 0 0 64.628 0.496 A 67.27 67.27 0 0 0 65.875 0.451 A 1.417 1.417 0 0 1 65.95 0.894 Q 65.951 1.122 65.875 1.351 L 63.8 1.651 Q 63.7 2.601 63.7 4.576 L 63.7 14.126 A 9.496 9.496 0 0 0 63.797 15.536 Q 63.906 16.258 64.136 16.828 A 3.461 3.461 0 0 0 65 18.113 Q 66.219 19.227 68.933 19.296 A 14.373 14.373 0 0 0 69.3 19.301 A 10.118 10.118 0 0 0 70.641 19.218 Q 72.405 18.982 73.213 18.063 A 3.656 3.656 0 0 0 73.875 16.919 Q 74.3 15.785 74.3 14.051 Z M 21.3 24.101 L 22.9 20.326 L 18.05 8.376 L 16.1 7.976 Q 15.975 7.476 16.1 6.976 A 33.435 33.435 0 0 0 17.216 7.037 Q 18.216 7.076 19.45 7.076 A 75.407 75.407 0 0 0 21.911 7.037 A 64.567 64.567 0 0 0 22.825 7.001 A 1.745 1.745 0 0 1 22.897 7.403 Q 22.914 7.694 22.825 7.976 L 20.675 8.326 L 23.05 13.951 A 14.81 14.81 0 0 1 23.367 14.811 Q 23.672 15.715 23.994 16.959 A 51.426 51.426 0 0 1 24.1 17.376 L 24.15 17.376 A 25.072 25.072 0 0 1 24.647 15.826 Q 24.926 15.042 25.278 14.19 A 40.844 40.844 0 0 1 25.325 14.076 L 27.5 8.251 L 25.55 7.976 A 1.637 1.637 0 0 1 25.51 7.735 Q 25.478 7.41 25.548 6.985 A 4.383 4.383 0 0 1 25.55 6.976 A 37.095 37.095 0 0 0 28.062 7.075 A 33.968 33.968 0 0 0 28.225 7.076 A 38.366 38.366 0 0 0 28.808 7.071 Q 29.717 7.057 30.911 7.002 A 101.299 101.299 0 0 0 30.95 7.001 A 1.745 1.745 0 0 1 31.022 7.403 Q 31.039 7.694 30.95 7.976 L 28.975 8.251 L 22.375 24.401 A 8.404 8.404 0 0 1 22.004 25.178 Q 21.629 25.863 21.2 26.276 Q 20.55 26.901 19.475 26.901 A 5.489 5.489 0 0 1 18.993 26.881 Q 18.519 26.839 18.207 26.708 A 1.515 1.515 0 0 1 18.163 26.688 A 1.857 1.857 0 0 1 17.799 26.463 Q 17.639 26.338 17.477 26.168 A 4.304 4.304 0 0 1 17.225 25.876 A 2.846 2.846 0 0 1 18.385 23.863 A 4.017 4.017 0 0 1 18.65 23.676 A 6.83 6.83 0 0 0 19.114 24.151 Q 19.845 24.826 20.4 24.826 Q 21.002 24.826 21.279 24.153 A 1.978 1.978 0 0 0 21.3 24.101 Z M 7.075 0.226 L 7.75 0.226 A 12.891 12.891 0 0 1 9.46 0.331 Q 11.475 0.602 12.625 1.563 A 4.298 4.298 0 0 1 14.211 4.675 A 5.611 5.611 0 0 1 14.225 5.076 A 3.785 3.785 0 0 1 12.442 8.353 Q 11.538 8.972 10.175 9.376 L 10.175 9.451 Q 12.525 9.801 13.888 11.288 Q 15.25 12.776 15.25 14.851 A 6.535 6.535 0 0 1 14.996 16.723 A 4.93 4.93 0 0 1 13.363 19.176 A 6.072 6.072 0 0 1 11.394 20.228 Q 9.892 20.726 7.825 20.726 A 18.872 18.872 0 0 1 7.248 20.715 Q 6.266 20.685 4.588 20.563 Q 2.743 20.429 1.519 20.406 A 25.757 25.757 0 0 0 1.025 20.401 A 5.395 5.395 0 0 0 0.939 20.401 Q 0.794 20.404 0.55 20.413 A 29.732 29.732 0 0 1 0.398 20.419 Q 0.188 20.426 0.075 20.426 A 1.417 1.417 0 0 1 0 19.983 Q -0.001 19.755 0.074 19.527 A 2.261 2.261 0 0 1 0.075 19.526 L 2.15 19.251 Q 2.25 18.301 2.25 16.326 L 2.25 1.601 L 0.225 1.351 A 1.46 1.46 0 0 1 0.183 1.113 Q 0.155 0.813 0.225 0.428 A 3.329 3.329 0 0 1 0.225 0.426 A 44.398 44.398 0 0 0 0.933 0.419 Q 2.1 0.401 3.9 0.326 A 283.438 283.438 0 0 1 4.872 0.287 Q 6.095 0.24 6.737 0.229 A 20.215 20.215 0 0 1 7.075 0.226 Z M 127.662 0.248 A 11.809 11.809 0 0 0 125.2 0.001 Q 122.35 0.001 120.038 1.488 Q 117.725 2.976 116.463 5.426 Q 115.2 7.876 115.2 10.751 Q 115.2 12.676 115.838 14.451 Q 116.475 16.226 117.675 17.688 A 7.745 7.745 0 0 0 118.916 18.893 A 9.301 9.301 0 0 0 120.825 20.026 A 9.583 9.583 0 0 0 122.622 20.624 A 11.567 11.567 0 0 0 125.2 20.901 A 12.001 12.001 0 0 0 125.674 20.891 A 9.237 9.237 0 0 0 132.4 17.801 A 10.528 10.528 0 0 0 134.562 14.231 A 11.877 11.877 0 0 0 135.225 10.201 Q 135.225 8.251 134.588 6.463 Q 133.95 4.676 132.75 3.213 A 7.745 7.745 0 0 0 131.509 2.008 A 9.301 9.301 0 0 0 129.6 0.876 A 9.599 9.599 0 0 0 127.662 0.248 Z M 84.55 4.576 L 84.55 19.301 L 86.575 19.551 A 1.46 1.46 0 0 1 86.617 19.789 Q 86.645 20.088 86.575 20.473 A 3.329 3.329 0 0 1 86.575 20.476 A 64.106 64.106 0 0 0 84.931 20.419 A 81.452 81.452 0 0 0 83.15 20.401 Q 81.942 20.401 80.135 20.441 A 259.494 259.494 0 0 0 79.7 20.451 A 1.417 1.417 0 0 1 79.625 20.008 Q 79.624 19.78 79.699 19.552 A 2.261 2.261 0 0 1 79.7 19.551 L 81.775 19.251 Q 81.875 18.301 81.875 16.326 L 81.875 1.601 L 79.85 1.351 A 1.46 1.46 0 0 1 79.808 1.113 Q 79.78 0.813 79.85 0.428 A 3.329 3.329 0 0 1 79.85 0.426 Q 80.79 0.494 82.045 0.516 A 71.543 71.543 0 0 0 83.275 0.526 A 80.001 80.001 0 0 0 85.478 0.496 A 67.27 67.27 0 0 0 86.725 0.451 A 1.417 1.417 0 0 1 86.8 0.894 Q 86.801 1.122 86.725 1.351 L 84.65 1.651 Q 84.55 2.601 84.55 4.576 Z M 125.175 19.526 A 6.726 6.726 0 0 0 127.253 19.216 A 5.698 5.698 0 0 0 129.163 18.163 Q 130.8 16.801 131.513 14.726 A 13.024 13.024 0 0 0 132.125 11.946 A 16.487 16.487 0 0 0 132.225 10.101 Q 132.225 7.676 131.513 5.763 Q 130.8 3.851 129.175 2.613 A 5.985 5.985 0 0 0 126.452 1.473 A 8.035 8.035 0 0 0 125.175 1.376 A 7.442 7.442 0 0 0 122.971 1.685 A 5.632 5.632 0 0 0 119.975 3.876 A 9.362 9.362 0 0 0 118.46 7.438 A 13.208 13.208 0 0 0 118.2 10.126 A 16.323 16.323 0 0 0 118.386 12.645 A 12.659 12.659 0 0 0 118.9 14.763 Q 119.6 16.826 121.225 18.176 A 5.823 5.823 0 0 0 124.535 19.499 A 7.533 7.533 0 0 0 125.175 19.526 Z M 6.925 10.251 L 4.925 10.251 L 4.925 19.301 A 33.64 33.64 0 0 0 5.671 19.424 Q 6.327 19.525 6.8 19.564 A 8.954 8.954 0 0 0 6.95 19.576 Q 9.393 19.576 10.613 18.833 A 2.77 2.77 0 0 0 11.125 18.438 A 3.46 3.46 0 0 0 11.931 17.143 Q 12.275 16.202 12.275 14.876 Q 12.275 12.926 10.863 11.588 A 4.65 4.65 0 0 0 8.857 10.489 Q 7.99 10.251 6.925 10.251 Z M 4.925 4.576 L 4.925 9.001 L 6.875 9.001 A 9.016 9.016 0 0 0 8.083 8.925 Q 9.499 8.733 10.263 8.051 A 3.022 3.022 0 0 0 11.149 6.599 Q 11.325 5.989 11.325 5.226 A 4.963 4.963 0 0 0 11.189 4.029 A 3.302 3.302 0 0 0 10.163 2.301 A 3.988 3.988 0 0 0 8.345 1.402 A 5.798 5.798 0 0 0 7.1 1.276 A 14.784 14.784 0 0 0 6.256 1.298 Q 5.861 1.321 5.521 1.366 A 6.601 6.601 0 0 0 5.025 1.451 Q 4.933 2.325 4.926 4.239 A 88.434 88.434 0 0 0 4.925 4.576 Z" vector-effect="non-scaling-stroke"/></g></svg>