<?xml version="1.0" standalone="no"?>
<!DOCTYPE svg PUBLIC "-//W3C//DTD SVG 20010904//EN"
 "http://www.w3.org/TR/2001/REC-SVG-20010904/DTD/svg10.dtd">
<svg version="1.0" xmlns="http://www.w3.org/2000/svg"
 width="512.000000pt" height="512.000000pt" viewBox="0 0 512.000000 512.000000"
 preserveAspectRatio="xMidYMid meet">

<g transform="translate(0.000000,512.000000) scale(0.100000,-0.100000)"
fill="#000000" stroke="none">
<path d="M1017 5006 c-100 -36 -173 -132 -232 -306 -42 -123 -59 -256 -52
-414 7 -164 31 -279 82 -404 20 -48 39 -94 41 -102 4 -12 -15 -24 -74 -48 -43
-18 -117 -56 -163 -83 -245 -146 -404 -321 -531 -585 -140 -290 -128 -312 212
-376 90 -16 414 -14 518 4 l82 15 0 -123 c0 -243 33 -515 91 -743 l28 -113
-50 -62 c-103 -127 -165 -297 -176 -481 -26 -453 226 -785 720 -950 529 -177
1538 -178 2085 -4 200 64 409 191 520 315 150 167 223 391 209 639 -11 184
-73 354 -176 481 l-50 62 28 113 c58 228 91 500 91 743 l0 123 83 -15 c107
-18 407 -21 512 -3 141 23 248 53 272 77 50 50 41 100 -55 298 -151 314 -367
522 -684 663 -46 20 -85 38 -87 39 -2 2 13 40 32 86 129 300 127 693 -5 963
-60 125 -141 192 -242 202 -134 14 -229 -68 -262 -225 -26 -122 -102 -239
-253 -395 -105 -108 -290 -269 -316 -275 -8 -2 -50 8 -95 22 -111 35 -151 34
-183 -4 -35 -42 -40 -63 -23 -104 17 -40 42 -55 147 -86 l76 -22 6 -62 c19
-199 -61 -354 -223 -436 -125 -63 -253 -74 -401 -36 -128 33 -192 39 -272 26
-206 -33 -350 -157 -443 -380 -42 -103 -87 -156 -161 -193 -129 -65 -316 -61
-456 9 -28 15 -54 28 -56 30 -2 1 2 27 9 56 24 109 74 246 126 348 160 313
433 542 783 657 128 41 146 52 161 97 12 38 5 62 -33 104 -27 30 -75 29 -177
-4 -45 -14 -87 -24 -95 -22 -26 6 -211 167 -316 275 -151 156 -227 273 -253
395 -15 72 -44 133 -78 165 -60 56 -162 77 -241 49z m102 -200 c6 -7 20 -47
30 -89 34 -130 109 -255 249 -412 66 -75 225 -223 287 -269 13 -10 -1 -22 -97
-86 -107 -70 -305 -250 -352 -320 l-17 -25 -31 35 c-99 114 -187 284 -229 446
-33 125 -33 369 -1 488 50 180 120 282 161 232z m2937 0 c27 -19 78 -132 106
-232 31 -113 31 -373 1 -484 -47 -171 -131 -333 -232 -450 l-30 -35 -17 25
c-46 69 -245 250 -350 319 l-111 73 81 71 c187 162 346 350 418 491 16 32 38
92 49 133 26 104 41 119 85 89z m-523 -1104 c427 -347 582 -968 427 -1703 -12
-58 -25 -111 -29 -117 -5 -8 -31 1 -81 27 -339 177 -862 262 -1477 239 -457
-16 -858 -104 -1112 -244 -47 -26 -66 -32 -72 -23 -11 19 -48 203 -64 324 -8
61 -18 189 -21 286 l-7 176 85 -28 c208 -70 440 -51 593 49 97 63 149 127 215
266 32 68 74 141 93 163 89 97 226 128 369 82 62 -21 93 -24 213 -24 162 0
223 13 354 76 189 92 311 277 328 501 l6 77 56 -36 c31 -19 87 -60 124 -91z
m-2489 -204 l57 -66 -36 -72 c-42 -83 -108 -275 -127 -369 -15 -74 -15 -74
-151 -96 -147 -24 -509 -15 -539 14 -11 10 43 120 105 215 123 188 278 316
512 421 77 35 102 42 111 32 6 -6 36 -42 68 -79z m3241 32 c55 -25 134 -68
175 -95 102 -68 236 -202 304 -306 64 -100 119 -210 108 -220 -32 -29 -389
-38 -539 -14 -136 22 -136 22 -151 96 -19 94 -85 286 -127 368 l-36 72 67 78
c47 55 72 77 83 74 9 -4 61 -27 116 -53z m-1260 -1605 c329 -35 587 -107 773
-217 31 -18 95 -71 142 -118 92 -92 134 -163 166 -280 24 -89 24 -281 0 -370
-80 -295 -344 -483 -806 -574 -274 -54 -673 -77 -1004 -57 -771 47 -1179 247
-1282 631 -24 89 -24 281 0 370 53 196 193 349 408 449 212 99 484 157 841
181 177 12 589 4 762 -15z"/>
<path d="M1892 2483 c-44 -21 -74 -66 -79 -117 -18 -159 195 -228 274 -90 74
128 -63 273 -195 207z"/>
<path d="M3092 2483 c-44 -21 -74 -66 -79 -117 -18 -159 195 -228 274 -90 74
128 -63 273 -195 207z"/>
<path d="M2224 1541 c-65 -28 -83 -110 -36 -162 24 -26 36 -32 72 -32 36 0 48
6 72 32 19 22 28 42 28 66 0 65 -78 120 -136 96z"/>
<path d="M2824 1541 c-65 -28 -83 -110 -36 -162 24 -26 36 -32 72 -32 36 0 48
6 72 32 19 22 28 42 28 66 0 65 -78 120 -136 96z"/>
<path d="M2511 4216 c-89 -49 -53 -186 49 -186 33 0 48 6 71 29 80 81 -20 212
-120 157z"/>
</g>
</svg>
