<svg width="123.025" height="20.926" viewBox="0 0 123.025 20.926" xmlns="http://www.w3.org/2000/svg"><g id="svgGroup" stroke-linecap="round" fill-rule="evenodd" font-size="9pt" stroke="#000" stroke-width="0.25mm" fill="" style="stroke:#000;stroke-width:0.25mm;fill:"><path d="M 15.925 20.85 L 15.275 18.8 Q 12.956 20.48 10.764 20.816 A 7.172 7.172 0 0 1 9.675 20.9 A 11.413 11.413 0 0 1 7.532 20.709 A 8.499 8.499 0 0 1 5.4 20.013 A 9.117 9.117 0 0 1 3.057 18.399 A 8.409 8.409 0 0 1 2.375 17.663 Q 1.175 16.2 0.588 14.338 Q 0 12.475 0 10.525 Q 0 8.55 0.688 6.663 Q 1.375 4.775 2.713 3.3 A 10.189 10.189 0 0 1 5.619 1.089 A 11.722 11.722 0 0 1 5.975 0.913 A 9.39 9.39 0 0 1 8.738 0.108 A 12.034 12.034 0 0 1 10.375 0 A 13.789 13.789 0 0 1 15.712 1.029 A 13.28 13.28 0 0 1 16.725 1.5 L 16.725 6.3 A 6.144 6.144 0 0 1 16.35 6.352 Q 16.122 6.375 15.925 6.375 A 3.102 3.102 0 0 1 15.664 6.365 Q 15.457 6.348 15.3 6.3 L 14.5 2.125 A 5.798 5.798 0 0 0 12.998 1.478 Q 11.752 1.125 10.075 1.125 A 5.996 5.996 0 0 0 8.148 1.429 A 5.466 5.466 0 0 0 7.225 1.838 Q 5.95 2.55 5.025 3.763 A 8.53 8.53 0 0 0 3.915 5.725 A 10.334 10.334 0 0 0 3.6 6.613 A 11.655 11.655 0 0 0 3.112 9.528 A 13.335 13.335 0 0 0 3.1 10.1 Q 3.1 12.075 3.563 13.75 A 10.59 10.59 0 0 0 4.163 15.403 A 8.4 8.4 0 0 0 4.875 16.65 A 6.42 6.42 0 0 0 6.336 18.173 A 5.966 5.966 0 0 0 6.938 18.563 A 5.333 5.333 0 0 0 9.371 19.244 A 6.376 6.376 0 0 0 9.65 19.25 A 9.262 9.262 0 0 0 13.393 18.442 A 11.42 11.42 0 0 0 14.425 17.925 L 14.425 12.6 L 12.4 12.35 Q 12.359 12.248 12.352 12.046 A 2.595 2.595 0 0 1 12.35 11.95 L 12.35 11.7 Q 12.35 11.583 12.394 11.444 A 1.236 1.236 0 0 1 12.4 11.425 A 32.653 32.653 0 0 0 13.134 11.469 A 42.583 42.583 0 0 0 13.938 11.5 Q 14.748 11.525 15.758 11.525 A 87.22 87.22 0 0 0 15.825 11.525 A 80.001 80.001 0 0 0 18.028 11.496 A 67.27 67.27 0 0 0 19.275 11.45 A 1.417 1.417 0 0 1 19.35 11.893 A 1.343 1.343 0 0 1 19.35 11.9 A 1.415 1.415 0 0 1 19.276 12.349 A 2.261 2.261 0 0 1 19.275 12.35 L 17.2 12.65 A 11.644 11.644 0 0 0 17.167 13.024 Q 17.141 13.386 17.125 13.85 A 37.463 37.463 0 0 0 17.11 14.433 Q 17.1 14.95 17.1 15.575 L 17.1 18.1 L 16.85 20.85 A 0.482 0.482 0 0 1 16.738 20.891 A 0.408 0.408 0 0 1 16.65 20.9 L 16.425 20.9 L 16.175 20.9 A 0.659 0.659 0 0 1 15.956 20.862 A 0.761 0.761 0 0 1 15.925 20.85 Z M 44.35 16.05 L 44.35 11.475 A 11.466 11.466 0 0 0 44.318 10.585 Q 44.249 9.71 44.035 9.163 A 2.082 2.082 0 0 0 43.838 8.775 A 1.64 1.64 0 0 0 42.869 8.092 Q 42.579 8.012 42.227 8.002 A 3.582 3.582 0 0 0 42.125 8 Q 40.452 8 38.758 10.271 A 13.242 13.242 0 0 0 38.4 10.775 L 38.4 19.125 L 40.425 19.5 A 1.637 1.637 0 0 1 40.465 19.741 Q 40.497 20.066 40.427 20.491 A 4.383 4.383 0 0 1 40.425 20.5 Q 38.85 20.425 37.2 20.425 Q 36.32 20.425 34.882 20.455 A 273.509 273.509 0 0 0 33.95 20.475 Q 33.809 20.03 33.932 19.563 A 1.908 1.908 0 0 1 33.95 19.5 L 35.925 19.225 Q 36.011 18.044 36.023 16.548 A 61.621 61.621 0 0 0 36.025 16.05 L 36.025 9.2 A 5.876 5.876 0 0 0 36.001 8.662 A 4.709 4.709 0 0 0 35.95 8.275 L 33.975 8.025 Q 33.877 7.656 33.972 7.094 A 4.143 4.143 0 0 1 33.975 7.075 A 36.376 36.376 0 0 0 35.325 6.95 Q 36.625 6.807 38.275 6.55 A 1.238 1.238 0 0 1 38.408 6.726 Q 38.474 6.833 38.504 6.939 A 0.66 0.66 0 0 1 38.525 7.05 A 4.677 4.677 0 0 0 38.47 7.433 Q 38.401 8.087 38.4 9.25 A 39.262 39.262 0 0 0 38.4 9.275 Q 39.695 7.489 41.205 6.874 A 4.32 4.32 0 0 1 42.85 6.55 A 5.903 5.903 0 0 1 44.357 6.726 Q 46.282 7.235 46.642 9.229 A 5.612 5.612 0 0 1 46.725 10.225 L 46.725 19.125 L 48.75 19.5 A 1.637 1.637 0 0 1 48.79 19.741 Q 48.822 20.066 48.752 20.491 A 4.383 4.383 0 0 1 48.75 20.5 Q 47.175 20.425 45.525 20.425 Q 44.645 20.425 43.207 20.455 A 273.509 273.509 0 0 0 42.275 20.475 Q 42.134 20.03 42.257 19.563 A 1.908 1.908 0 0 1 42.275 19.5 L 44.25 19.225 Q 44.336 18.044 44.348 16.548 A 61.621 61.621 0 0 0 44.35 16.05 Z M 75.625 4.55 L 75.625 16.85 A 59.192 59.192 0 0 0 75.63 17.625 Q 75.642 18.581 75.689 19.087 A 5.893 5.893 0 0 0 75.7 19.2 L 77.675 19.45 A 2.179 2.179 0 0 1 77.707 19.714 Q 77.72 19.924 77.701 20.167 A 4.342 4.342 0 0 1 77.675 20.4 Q 75.85 20.475 73.875 20.75 Q 73.705 20.58 73.629 20.292 A 1.482 1.482 0 0 1 73.625 20.275 L 73.5 18.675 A 6.357 6.357 0 0 1 71.491 20.232 A 7.35 7.35 0 0 1 71.325 20.313 Q 70.025 20.925 68.6 20.925 Q 66.425 20.925 65 19.113 A 6.309 6.309 0 0 1 63.878 16.806 Q 63.575 15.67 63.575 14.275 A 10.683 10.683 0 0 1 63.826 11.892 Q 64.245 10.059 65.365 8.747 A 6.841 6.841 0 0 1 65.438 8.663 A 6.591 6.591 0 0 1 67.106 7.276 A 5.536 5.536 0 0 1 69.9 6.55 Q 71.95 6.55 73.25 7.525 L 73.25 4.175 A 59.391 59.391 0 0 0 73.245 3.404 Q 73.231 2.325 73.175 1.725 L 71.2 1.475 Q 71.102 1.106 71.197 0.544 A 4.143 4.143 0 0 1 71.2 0.525 A 36.376 36.376 0 0 0 72.55 0.4 Q 73.85 0.257 75.5 0 A 1.238 1.238 0 0 1 75.633 0.176 Q 75.699 0.283 75.729 0.389 A 0.66 0.66 0 0 1 75.75 0.5 Q 75.625 1.15 75.625 4.55 Z M 28.55 12.85 L 28.55 11.575 A 14.78 14.78 0 0 0 28.516 10.529 Q 28.443 9.507 28.216 8.854 A 2.953 2.953 0 0 0 28.063 8.488 A 1.806 1.806 0 0 0 27.602 7.897 Q 27.248 7.607 26.744 7.543 A 2.352 2.352 0 0 0 26.45 7.525 A 2.916 2.916 0 0 0 25.62 7.638 A 2.271 2.271 0 0 0 24.6 8.263 Q 23.963 8.934 23.698 10.465 A 10.12 10.12 0 0 0 23.65 10.775 A 13.488 13.488 0 0 1 23.277 10.852 Q 22.756 10.95 22.475 10.95 A 2.042 2.042 0 0 1 22.068 10.913 Q 21.847 10.868 21.689 10.768 A 0.82 0.82 0 0 1 21.325 10.25 A 3.037 3.037 0 0 1 22.374 7.881 A 4.067 4.067 0 0 1 22.8 7.55 Q 24.275 6.55 26.475 6.55 Q 28.9 6.55 29.913 7.538 Q 30.925 8.525 30.925 11.075 L 30.925 18.125 A 8.741 8.741 0 0 0 30.937 18.604 Q 30.95 18.83 30.975 19.027 A 4.462 4.462 0 0 0 31 19.2 L 32.975 19.45 Q 33.073 19.819 32.978 20.382 A 4.143 4.143 0 0 1 32.975 20.4 Q 31.2 20.475 29.2 20.75 A 0.885 0.885 0 0 1 28.959 20.297 A 1.094 1.094 0 0 1 28.95 20.25 L 28.825 18.525 A 8.272 8.272 0 0 1 27.377 19.853 A 5.409 5.409 0 0 1 24.2 20.9 A 4.446 4.446 0 0 1 23.198 20.794 Q 22.416 20.613 21.868 20.125 A 2.816 2.816 0 0 1 21.738 20 A 3.003 3.003 0 0 1 20.937 18.468 A 4.366 4.366 0 0 1 20.85 17.575 Q 20.85 15.553 22.464 14.4 A 5.219 5.219 0 0 1 22.938 14.1 Q 25.025 12.925 28.55 12.85 Z M 57.825 12.85 L 57.825 11.575 A 14.78 14.78 0 0 0 57.791 10.529 Q 57.718 9.507 57.491 8.854 A 2.953 2.953 0 0 0 57.338 8.488 A 1.806 1.806 0 0 0 56.877 7.897 Q 56.523 7.607 56.019 7.543 A 2.352 2.352 0 0 0 55.725 7.525 A 2.916 2.916 0 0 0 54.895 7.638 A 2.271 2.271 0 0 0 53.875 8.263 Q 53.238 8.934 52.973 10.465 A 10.12 10.12 0 0 0 52.925 10.775 A 13.488 13.488 0 0 1 52.552 10.852 Q 52.031 10.95 51.75 10.95 A 2.042 2.042 0 0 1 51.343 10.913 Q 51.122 10.868 50.964 10.768 A 0.82 0.82 0 0 1 50.6 10.25 A 3.037 3.037 0 0 1 51.649 7.881 A 4.067 4.067 0 0 1 52.075 7.55 Q 53.55 6.55 55.75 6.55 Q 58.175 6.55 59.188 7.538 Q 60.2 8.525 60.2 11.075 L 60.2 18.125 A 8.741 8.741 0 0 0 60.212 18.604 Q 60.225 18.83 60.25 19.027 A 4.462 4.462 0 0 0 60.275 19.2 L 62.25 19.45 Q 62.348 19.819 62.253 20.382 A 4.143 4.143 0 0 1 62.25 20.4 Q 60.475 20.475 58.475 20.75 A 0.885 0.885 0 0 1 58.234 20.297 A 1.094 1.094 0 0 1 58.225 20.25 L 58.1 18.525 A 8.272 8.272 0 0 1 56.652 19.853 A 5.409 5.409 0 0 1 53.475 20.9 A 4.446 4.446 0 0 1 52.473 20.794 Q 51.691 20.613 51.143 20.125 A 2.816 2.816 0 0 1 51.013 20 A 3.003 3.003 0 0 1 50.212 18.468 A 4.366 4.366 0 0 1 50.125 17.575 Q 50.125 15.553 51.739 14.4 A 5.219 5.219 0 0 1 52.213 14.1 Q 54.3 12.925 57.825 12.85 Z M 118.55 12.85 L 118.55 11.575 A 14.78 14.78 0 0 0 118.516 10.529 Q 118.443 9.507 118.216 8.854 A 2.953 2.953 0 0 0 118.063 8.488 A 1.806 1.806 0 0 0 117.602 7.897 Q 117.248 7.607 116.744 7.543 A 2.352 2.352 0 0 0 116.45 7.525 A 2.916 2.916 0 0 0 115.62 7.638 A 2.271 2.271 0 0 0 114.6 8.263 Q 113.963 8.934 113.698 10.465 A 10.12 10.12 0 0 0 113.65 10.775 A 13.488 13.488 0 0 1 113.277 10.852 Q 112.756 10.95 112.475 10.95 A 2.042 2.042 0 0 1 112.068 10.913 Q 111.847 10.868 111.689 10.768 A 0.82 0.82 0 0 1 111.325 10.25 A 3.037 3.037 0 0 1 112.374 7.881 A 4.067 4.067 0 0 1 112.8 7.55 Q 114.275 6.55 116.475 6.55 Q 118.9 6.55 119.913 7.538 Q 120.925 8.525 120.925 11.075 L 120.925 18.125 A 8.741 8.741 0 0 0 120.937 18.604 Q 120.95 18.83 120.975 19.027 A 4.462 4.462 0 0 0 121 19.2 L 122.975 19.45 Q 123.073 19.819 122.978 20.382 A 4.143 4.143 0 0 1 122.975 20.4 Q 121.2 20.475 119.2 20.75 A 0.885 0.885 0 0 1 118.959 20.297 A 1.094 1.094 0 0 1 118.95 20.25 L 118.825 18.525 A 8.272 8.272 0 0 1 117.377 19.853 A 5.409 5.409 0 0 1 114.2 20.9 A 4.446 4.446 0 0 1 113.198 20.794 Q 112.416 20.613 111.868 20.125 A 2.816 2.816 0 0 1 111.738 20 A 3.003 3.003 0 0 1 110.937 18.468 A 4.366 4.366 0 0 1 110.85 17.575 Q 110.85 15.553 112.464 14.4 A 5.219 5.219 0 0 1 112.938 14.1 Q 115.025 12.925 118.55 12.85 Z M 96.55 7.05 L 96.5 9.625 A 7.229 7.229 0 0 1 97.65 8.069 A 8.777 8.777 0 0 1 98.238 7.513 A 5.295 5.295 0 0 1 98.905 7.016 Q 99.28 6.783 99.641 6.667 A 2.305 2.305 0 0 1 100.35 6.55 Q 101.112 6.55 101.705 6.72 A 3.605 3.605 0 0 1 101.725 6.725 A 1.243 1.243 0 0 1 101.868 7.071 Q 101.925 7.294 101.925 7.575 A 4.107 4.107 0 0 1 101.676 8.968 A 4.816 4.816 0 0 1 101.575 9.225 A 6.93 6.93 0 0 0 100.493 9.012 A 5.766 5.766 0 0 0 99.85 8.975 A 3.691 3.691 0 0 0 97.043 10.245 A 5.765 5.765 0 0 0 96.475 10.975 L 96.425 15.35 L 96.425 19.125 L 99.2 19.5 A 1.637 1.637 0 0 1 99.24 19.741 Q 99.272 20.066 99.202 20.491 A 4.383 4.383 0 0 1 99.2 20.5 A 61.775 61.775 0 0 0 97.736 20.449 Q 96.988 20.431 96.161 20.427 A 104.295 104.295 0 0 0 95.6 20.425 A 114.065 114.065 0 0 0 94.375 20.432 Q 93.831 20.438 93.231 20.449 A 213.084 213.084 0 0 0 91.975 20.475 Q 91.834 20.03 91.957 19.563 A 1.908 1.908 0 0 1 91.975 19.5 L 93.95 19.225 Q 94.036 18.044 94.048 16.548 A 61.621 61.621 0 0 0 94.05 16.05 L 94.05 9.2 A 5.876 5.876 0 0 0 94.026 8.662 A 4.709 4.709 0 0 0 93.975 8.275 L 92 8.025 Q 91.902 7.656 91.997 7.094 A 4.143 4.143 0 0 1 92 7.075 A 36.376 36.376 0 0 0 93.35 6.95 Q 94.65 6.807 96.3 6.55 A 1.238 1.238 0 0 1 96.433 6.726 Q 96.499 6.833 96.529 6.939 A 0.66 0.66 0 0 1 96.55 7.05 Z M 89.625 13.35 L 81.775 13.35 A 18.918 18.918 0 0 0 81.764 13.844 Q 81.711 19.58 85.41 19.722 A 4.958 4.958 0 0 0 85.6 19.725 A 4.379 4.379 0 0 0 87.371 19.332 Q 87.968 19.07 88.573 18.633 A 9.019 9.019 0 0 0 89.125 18.2 A 1.158 1.158 0 0 1 89.47 18.525 Q 89.571 18.666 89.65 18.849 A 2.307 2.307 0 0 1 89.7 18.975 A 5.578 5.578 0 0 1 85.653 20.893 A 7.066 7.066 0 0 1 85.325 20.9 A 7.359 7.359 0 0 1 82.728 20.48 Q 79.225 19.163 79.225 13.725 A 10.331 10.331 0 0 1 79.428 11.612 Q 79.83 9.691 81.025 8.438 A 6.382 6.382 0 0 1 82.699 7.156 A 5.403 5.403 0 0 1 85.225 6.55 A 5.904 5.904 0 0 1 86.688 6.72 A 3.712 3.712 0 0 1 89 8.375 A 6.942 6.942 0 0 1 89.84 10.383 Q 90.063 11.262 90.125 12.294 A 13.705 13.705 0 0 1 90.15 13.125 A 1.126 1.126 0 0 1 89.912 13.274 A 0.885 0.885 0 0 1 89.625 13.35 Z M 107.35 11.1 L 107.35 19.125 L 109.375 19.5 A 3.792 3.792 0 0 1 109.396 19.612 Q 109.405 19.665 109.411 19.712 A 2.238 2.238 0 0 1 109.413 19.725 Q 109.425 19.825 109.425 19.95 Q 109.425 20.042 109.418 20.141 A 3.239 3.239 0 0 1 109.413 20.213 Q 109.4 20.35 109.375 20.5 Q 107.8 20.425 106.15 20.425 Q 105.575 20.425 104.763 20.438 A 179.649 179.649 0 0 0 104.006 20.451 Q 103.619 20.459 103.191 20.469 A 307.194 307.194 0 0 0 102.9 20.475 A 1.492 1.492 0 0 1 102.825 20.002 A 1.588 1.588 0 0 1 102.825 20 A 1.599 1.599 0 0 1 102.843 19.767 Q 102.86 19.656 102.891 19.535 A 2.68 2.68 0 0 1 102.9 19.5 L 104.875 19.225 A 35.348 35.348 0 0 0 104.928 18.316 A 42.008 42.008 0 0 0 104.95 17.738 A 48.254 48.254 0 0 0 104.969 16.922 A 58.903 58.903 0 0 0 104.975 16.05 L 104.975 10.725 A 59.391 59.391 0 0 0 104.97 9.954 Q 104.956 8.875 104.9 8.275 L 102.925 8.025 A 0.49 0.49 0 0 1 102.902 7.947 Q 102.875 7.821 102.875 7.6 L 102.875 7.35 Q 102.875 7.233 102.919 7.094 A 1.236 1.236 0 0 1 102.925 7.075 A 27.834 27.834 0 0 0 104.2 6.968 Q 105.519 6.829 107.225 6.55 A 1.238 1.238 0 0 1 107.358 6.726 Q 107.424 6.833 107.454 6.939 A 0.66 0.66 0 0 1 107.475 7.05 A 4.096 4.096 0 0 0 107.433 7.406 Q 107.357 8.302 107.351 10.68 A 166.191 166.191 0 0 0 107.35 11.1 Z M 73.25 17.3 L 73.25 9.3 A 3.946 3.946 0 0 0 71.168 8.066 Q 70.52 7.906 69.75 7.901 A 7.661 7.661 0 0 0 69.7 7.9 Q 68.075 7.9 67.1 9.613 Q 66.411 10.824 66.209 12.691 A 15.468 15.468 0 0 0 66.125 14.35 A 10.774 10.774 0 0 0 66.21 15.75 Q 66.3 16.44 66.488 17.005 A 4.289 4.289 0 0 0 67.038 18.125 A 3.279 3.279 0 0 0 67.804 18.918 A 2.75 2.75 0 0 0 69.45 19.425 Q 70.35 19.425 71.425 18.863 Q 72.5 18.3 73.25 17.3 Z M 28.55 17.65 L 28.55 13.75 Q 26.034 13.897 24.664 14.628 A 4.497 4.497 0 0 0 24.6 14.663 A 2.684 2.684 0 0 0 23.699 15.444 Q 23.225 16.107 23.225 17.075 A 5.679 5.679 0 0 0 23.255 17.678 Q 23.344 18.51 23.7 18.913 A 1.458 1.458 0 0 0 24.324 19.32 Q 24.565 19.405 24.862 19.434 A 3.402 3.402 0 0 0 25.2 19.45 Q 25.95 19.45 26.863 18.988 A 5.362 5.362 0 0 0 28.046 18.163 A 6.667 6.667 0 0 0 28.55 17.65 Z M 57.825 17.65 L 57.825 13.75 Q 55.309 13.897 53.939 14.628 A 4.497 4.497 0 0 0 53.875 14.663 A 2.684 2.684 0 0 0 52.974 15.444 Q 52.5 16.107 52.5 17.075 A 5.679 5.679 0 0 0 52.53 17.678 Q 52.619 18.51 52.975 18.913 A 1.458 1.458 0 0 0 53.599 19.32 Q 53.84 19.405 54.137 19.434 A 3.402 3.402 0 0 0 54.475 19.45 Q 55.225 19.45 56.138 18.988 A 5.362 5.362 0 0 0 57.321 18.163 A 6.667 6.667 0 0 0 57.825 17.65 Z M 118.55 17.65 L 118.55 13.75 Q 116.034 13.897 114.664 14.628 A 4.497 4.497 0 0 0 114.6 14.663 A 2.684 2.684 0 0 0 113.699 15.444 Q 113.225 16.107 113.225 17.075 A 5.679 5.679 0 0 0 113.255 17.678 Q 113.344 18.51 113.7 18.913 A 1.458 1.458 0 0 0 114.324 19.32 Q 114.565 19.405 114.862 19.434 A 3.402 3.402 0 0 0 115.2 19.45 Q 115.95 19.45 116.863 18.988 A 5.362 5.362 0 0 0 118.046 18.163 A 6.667 6.667 0 0 0 118.55 17.65 Z M 81.85 12.35 L 84.95 12.35 A 24.372 24.372 0 0 0 85.809 12.336 Q 86.634 12.307 87.175 12.217 A 4.01 4.01 0 0 0 87.6 12.125 Q 87.6 10.075 86.975 8.813 A 2.917 2.917 0 0 0 86.58 8.203 A 1.776 1.776 0 0 0 85.175 7.55 A 2.343 2.343 0 0 0 83.555 8.203 A 3.862 3.862 0 0 0 82.963 8.9 Q 82.05 10.25 81.85 12.35 Z M 109.4 1.475 L 106.2 5.325 A 7.434 7.434 0 0 1 105.822 5.211 Q 105.451 5.087 105.214 4.954 A 1.76 1.76 0 0 1 105.125 4.9 L 107.225 0.55 A 0.804 0.804 0 0 1 107.67 0.421 Q 108.361 0.421 109.393 1.468 A 8.859 8.859 0 0 1 109.4 1.475 Z" vector-effect="non-scaling-stroke"/></g></svg>