<?xml version="1.0" standalone="no"?>
<!DOCTYPE svg PUBLIC "-//W3C//DTD SVG 20010904//EN"
 "http://www.w3.org/TR/2001/REC-SVG-20010904/DTD/svg10.dtd">
<svg version="1.0" xmlns="http://www.w3.org/2000/svg"
 width="499.000000pt" height="210.000000pt" viewBox="0 0 499.000000 210.000000"
 preserveAspectRatio="xMidYMid meet">

<g transform="translate(0.000000,210.000000) scale(0.100000,-0.100000)"
fill="#000000" stroke="none">
<path d="M1805 1910 c-16 -17 -16 -24 -6 -44 12 -21 23 -25 100 -31 169 -14
275 -65 336 -163 l35 -57 -47 -41 -47 -41 37 -18 c72 -34 121 -115 138 -228
21 -140 -20 -282 -101 -348 -42 -36 -39 -43 50 -115 101 -82 191 -103 277 -65
52 24 119 74 156 117 l28 33 -45 41 c-66 61 -89 128 -90 255 -1 129 20 200 76
261 22 24 51 47 64 50 13 4 24 10 24 15 0 11 -28 39 -60 60 -22 15 -23 18 -11
48 20 47 90 116 147 144 51 26 118 41 233 55 74 8 92 25 73 66 -11 25 -15 26
-89 26 -96 0 -205 -29 -288 -75 -70 -39 -112 -81 -150 -150 l-27 -50 -130 1
-129 0 -25 43 c-43 77 -84 120 -147 155 -124 69 -341 101 -382 56z"/>
<path d="M2058 1405 c-62 -34 -96 -185 -64 -283 25 -74 64 -112 114 -112 56 0
93 33 115 102 57 182 -42 359 -165 293z"/>
<path d="M2795 1387 c-65 -65 -81 -191 -36 -291 28 -65 54 -86 102 -86 57 0
77 14 105 73 45 98 26 258 -38 312 -44 37 -91 34 -133 -8z"/>
<path d="M1871 889 c-19 -12 -71 -58 -115 -103 -124 -125 -165 -229 -145 -358
12 -78 35 -113 75 -113 27 0 30 5 50 65 27 86 63 141 138 212 71 68 92 77 116
52 10 -11 68 -107 129 -214 61 -107 126 -219 144 -248 38 -62 68 -75 100 -43
l21 21 -31 57 c-29 55 -54 100 -140 246 -20 34 -46 80 -58 102 -34 62 -129
224 -169 288 -40 65 -59 70 -115 36z"/>
<path d="M3017 893 c-8 -10 -32 -47 -53 -83 -55 -95 -98 -169 -109 -188 -6 -9
-31 -53 -56 -97 -25 -44 -80 -140 -122 -213 -43 -73 -77 -141 -77 -151 0 -21
42 -46 63 -38 17 6 69 82 115 167 40 72 84 150 133 230 21 36 45 79 52 95 22
49 38 57 70 36 48 -32 137 -122 163 -167 14 -24 32 -67 39 -94 16 -61 30 -80
60 -80 30 0 50 26 64 82 25 106 8 201 -55 297 -61 94 -206 221 -252 221 -10 0
-26 -8 -35 -17z"/>
</g>
</svg>
