<?xml version="1.0" encoding="UTF-8"?>
<svg xmlns="http://www.w3.org/2000/svg" xmlns:xlink="http://www.w3.org/1999/xlink" width="400px" height="432px" viewBox="0 0 400 433" version="1.1">
<g id="surface1">
<path style=" stroke:none;fill-rule:nonzero;fill:rgb(0%,0%,0%);fill-opacity:1;" d="M 47.359375 17.328125 C 44.222656 19.140625 42.902344 21.121094 43.234375 23.433594 C 44.222656 29.867188 50.988281 32.671875 68.976562 34.652344 C 107.425781 38.777344 128.21875 50.164062 142.738281 74.917969 L 147.523438 83.167969 L 137.789062 91.914062 C 132.507812 96.699219 128.546875 100.824219 128.878906 101.15625 C 129.207031 101.484375 133.003906 103.628906 137.128906 106.105469 C 155.445312 116.5 166.667969 141.089844 166.667969 170.789062 C 166.667969 194.71875 159.40625 214.851562 145.875 229.371094 C 141.914062 233.660156 138.613281 238.28125 138.613281 239.765625 C 138.613281 245.542969 165.839844 266.5 180.03125 271.613281 C 191.089844 275.574219 204.457031 274.914062 214.851562 270.128906 C 225.578125 265.179688 242.574219 252.636719 249.011719 244.550781 L 253.960938 238.777344 L 243.730469 227.886719 C 231.683594 214.851562 228.21875 206.765625 225.90625 184.652344 C 223.925781 165.179688 226.238281 142.902344 231.683594 131.023438 C 236.46875 120.460938 246.203125 109.734375 254.457031 105.445312 C 257.921875 103.628906 260.726562 101.484375 260.726562 100.660156 C 260.726562 99.835938 257.097656 96.039062 252.476562 92.242188 C 248.019531 88.449219 244.222656 84.324219 244.222656 83.003906 C 244.222656 78.21875 250.988281 67.820312 259.40625 59.570312 C 274.585938 44.71875 289.109375 38.945312 324.753906 33.992188 C 346.371094 31.023438 350.496094 27.722656 343.894531 18.480469 C 341.585938 15.179688 340.097656 14.851562 326.238281 14.851562 C 294.390625 14.851562 260.230469 28.050781 242.410156 47.195312 C 239.109375 50.824219 233.664062 58.25 230.199219 64.027344 L 223.925781 74.257812 L 195.050781 73.925781 L 166.007812 73.433594 L 160.726562 64.355469 C 150.164062 46.863281 139.769531 36.964844 123.265625 29.042969 C 103.628906 19.636719 90.59375 16.335938 69.308594 15.511719 C 55.609375 14.851562 50.988281 15.347656 47.359375 17.328125 Z M 47.359375 17.328125 "/>
<path style=" stroke:none;fill-rule:nonzero;fill:rgb(0%,0%,0%);fill-opacity:1;" d="M 102.96875 128.710938 C 98.019531 130.691406 91.585938 139.601562 88.117188 149.339844 C 83.664062 162.046875 83.992188 184.980469 88.777344 195.542969 C 96.371094 212.210938 107.097656 218.644531 119.472656 213.859375 C 132.34375 208.910156 139.4375 193.234375 139.273438 169.140625 C 139.273438 156.105469 138.613281 153.132812 134.324219 144.386719 C 126.898438 129.535156 115.347656 123.761719 102.96875 128.710938 Z M 102.96875 128.710938 "/>
<path style=" stroke:none;fill-rule:nonzero;fill:rgb(0%,0%,0%);fill-opacity:1;" d="M 264.355469 133.332031 C 249.671875 148.019531 245.710938 171.617188 254.457031 193.894531 C 261.714844 212.375 272.441406 219.140625 286.136719 213.859375 C 294.390625 210.722656 299.339844 203.792969 302.804688 190.59375 C 310.890625 159.570312 298.183594 127.0625 277.886719 127.0625 C 271.617188 127.0625 269.800781 127.886719 264.355469 133.332031 Z M 264.355469 133.332031 "/>
<path style=" stroke:none;fill-rule:nonzero;fill:rgb(0%,0%,0%);fill-opacity:1;" d="M 59.242188 244.058594 C 50.328125 249.832031 22.441406 278.546875 15.179688 289.4375 C 5.445312 304.289062 2.640625 314.1875 2.640625 332.503906 C 2.640625 355.113281 8.25 367.984375 18.152344 367.984375 C 23.597656 367.984375 24.917969 366.5 28.878906 355.609375 C 35.808594 336.300781 43.398438 324.421875 58.25 309.898438 C 72.773438 295.378906 79.042969 291.746094 83.992188 294.882812 C 86.796875 296.699219 99.339844 316.996094 129.371094 368.972656 C 139.769531 387.125 150.328125 404.121094 152.476562 406.433594 C 157.589844 411.878906 161.882812 412.042969 167.65625 407.09375 L 172.113281 403.296875 L 165.839844 391.746094 C 158.582031 378.546875 129.207031 327.554688 103.628906 283.660156 C 80.527344 243.890625 77.226562 239.273438 71.289062 239.273438 C 68.8125 239.273438 63.367188 241.417969 59.242188 244.058594 Z M 59.242188 244.058594 "/>
<path style=" stroke:none;fill-rule:nonzero;fill:rgb(0%,0%,0%);fill-opacity:1;" d="M 310.726562 244.882812 C 308.25 248.019531 299.503906 262.042969 291.417969 275.90625 C 257.425781 334.320312 231.847656 379.535156 226.238281 390.757812 C 219.800781 403.957031 220.132812 407.09375 228.546875 410.0625 C 232.671875 411.546875 233.664062 411.054688 238.613281 405.277344 C 241.75 401.648438 250.660156 387.621094 258.582031 373.925781 C 266.335938 360.226562 277.394531 341.25 283.003906 331.679688 C 288.613281 322.109375 295.710938 309.734375 298.679688 304.125 C 301.648438 298.511719 305.445312 293.398438 307.261719 292.738281 C 311.714844 291.417969 320.957031 297.851562 335.808594 313.035156 C 349.011719 326.566406 355.941406 337.953125 360.5625 353.792969 C 369.308594 383.660156 388.285156 368.480469 388.117188 331.679688 C 388.117188 305.277344 374.753906 281.847656 344.554688 254.785156 C 333.5 245.046875 324.09375 239.273438 318.648438 239.273438 C 316.832031 239.273438 313.367188 241.746094 310.726562 244.882812 Z M 310.726562 244.882812 "/>
</g>
</svg>
