<?xml version="1.0" encoding="UTF-8"?>
<svg xmlns="http://www.w3.org/2000/svg" xmlns:xlink="http://www.w3.org/1999/xlink" width="108px" height="30px" viewBox="0 0 107 30" version="1.1">
<g id="surface1">
<path style=" stroke:none;fill-rule:nonzero;fill:rgb(0%,0%,0%);fill-opacity:1;" d="M 25.359375 0.4375 C 25.359375 0.476562 25.605469 1 25.90625 1.601562 C 26.761719 3.273438 27.136719 4.5 27.199219 5.835938 C 27.246094 6.835938 27.222656 7.050781 26.960938 7.550781 C 26.253906 9 24.761719 10.113281 23.230469 10.363281 C 21.976562 10.574219 21.628906 10.414062 19.675781 8.6875 C 18.347656 7.511719 17.761719 7.1875 16.65625 7.011719 C 15.015625 6.738281 12.019531 6.925781 10.9375 7.351562 C 10.765625 7.414062 10.128906 7.914062 9.535156 8.449219 C 7.433594 10.324219 6.875 10.613281 5.707031 10.363281 C 4.214844 10.050781 2.996094 9.199219 2.25 7.949219 C 1.429688 6.574219 1.617188 4.761719 2.871094 1.949219 C 3.195312 1.199219 3.441406 0.550781 3.417969 0.511719 C 3.304688 0.398438 1.964844 1.425781 1.542969 1.9375 C 1.070312 2.523438 0.660156 3.375 0.421875 4.3125 C 0.1875 5.1875 0.199219 7.539062 0.449219 8.386719 C 0.871094 9.835938 2.238281 11.738281 3.21875 12.238281 C 3.890625 12.585938 5.234375 12.960938 6.835938 13.25 C 8.761719 13.585938 9.371094 13.8125 9.90625 14.351562 C 10.402344 14.863281 11.011719 15.800781 11.511719 16.761719 C 12.503906 18.738281 13.125 19.25 14.566406 19.25 C 15.203125 19.25 15.464844 19.1875 15.800781 18.960938 C 16.359375 18.585938 16.980469 17.738281 17.652344 16.425781 C 18.335938 15.074219 19.179688 14.125 19.976562 13.773438 C 20.3125 13.636719 21.28125 13.398438 22.164062 13.25 C 24.625 12.835938 25.644531 12.425781 26.726562 11.425781 C 28.140625 10.101562 28.976562 7.800781 28.800781 5.6875 C 28.628906 3.699219 27.769531 2.023438 26.378906 0.960938 C 25.65625 0.425781 25.359375 0.273438 25.359375 0.4375 Z M 25.359375 0.4375 "/>
<path style=" stroke:none;fill-rule:nonzero;fill:rgb(0%,0%,0%);fill-opacity:1;" d="M 49.101562 12.476562 C 49.101562 14.113281 49.0625 15.488281 49.023438 15.523438 C 48.988281 15.574219 48.601562 15.4375 48.15625 15.226562 C 45.59375 14.023438 42.996094 15.351562 42.511719 18.101562 C 42.238281 19.648438 42.746094 21.136719 43.902344 22.1875 C 44.699219 22.898438 45.160156 23.039062 46.476562 22.976562 C 47.546875 22.925781 48.601562 22.550781 48.601562 22.238281 C 48.601562 21.976562 49.023438 22.199219 49.101562 22.5 C 49.175781 22.800781 49.199219 22.8125 50.441406 22.851562 L 51.710938 22.886719 L 51.710938 9.5 L 49.101562 9.5 Z M 48.140625 17.199219 C 48.9375 17.625 49.296875 18.886719 48.863281 19.773438 C 48.539062 20.476562 48.03125 20.773438 47.199219 20.773438 C 45.980469 20.789062 45.246094 20.113281 45.246094 18.960938 C 45.246094 17.351562 46.714844 16.460938 48.140625 17.199219 Z M 48.140625 17.199219 "/>
<path style=" stroke:none;fill-rule:nonzero;fill:rgb(0%,0%,0%);fill-opacity:1;" d="M 34.394531 10.148438 C 31.324219 17.789062 29.796875 21.5625 29.597656 22.039062 C 29.449219 22.375 29.335938 22.699219 29.335938 22.761719 C 29.335938 22.824219 29.996094 22.875 30.816406 22.875 L 32.28125 22.875 L 33.226562 20.375 L 38.371094 20.375 L 38.796875 21.625 L 39.21875 22.875 L 40.671875 22.875 C 41.480469 22.875 42.140625 22.824219 42.140625 22.761719 C 42.140625 22.710938 41.019531 19.851562 39.652344 16.425781 C 37.550781 11.125 37.128906 10.175781 36.894531 10.101562 C 36.347656 9.949219 34.457031 9.988281 34.394531 10.148438 Z M 36.421875 15.398438 C 36.707031 16.113281 37.03125 16.898438 37.117188 17.164062 C 37.277344 17.625 37.277344 17.636719 36.96875 17.75 C 36.621094 17.886719 35.152344 17.914062 34.71875 17.800781 C 34.519531 17.75 34.433594 17.625 34.433594 17.425781 C 34.433594 16.914062 35.5625 14.125 35.773438 14.125 C 35.835938 14.125 36.136719 14.699219 36.421875 15.398438 Z M 36.421875 15.398438 "/>
<path style=" stroke:none;fill-rule:nonzero;fill:rgb(0%,0%,0%);fill-opacity:1;" d="M 5.222656 14.960938 C 3.953125 15.398438 2.699219 16.5625 2.363281 17.574219 C 2.113281 18.335938 2.101562 18.335938 4.808594 18.414062 C 6.164062 18.460938 7.421875 18.523438 7.621094 18.574219 C 7.941406 18.648438 7.957031 18.636719 7.957031 18.199219 C 7.957031 17.949219 8.105469 17.289062 8.289062 16.726562 C 8.675781 15.539062 8.652344 15.4375 7.695312 15.039062 C 6.898438 14.710938 6.003906 14.6875 5.222656 14.960938 Z M 5.222656 14.960938 "/>
<path style=" stroke:none;fill-rule:nonzero;fill:rgb(0%,0%,0%);fill-opacity:1;" d="M 21.628906 14.863281 C 20.980469 15.074219 20.511719 15.386719 20.449219 15.664062 C 20.410156 15.8125 20.460938 16.164062 20.585938 16.4375 C 20.695312 16.710938 20.832031 17.261719 20.894531 17.675781 C 20.945312 18.074219 21.070312 18.460938 21.15625 18.523438 C 21.242188 18.585938 21.566406 18.585938 21.878906 18.539062 C 22.1875 18.488281 23.394531 18.4375 24.550781 18.4375 L 26.664062 18.425781 L 26.699219 18.101562 C 26.800781 17.238281 25.40625 15.601562 24.175781 15.125 C 23.367188 14.824219 22.125 14.6875 21.628906 14.863281 Z M 21.628906 14.863281 "/>
<path style=" stroke:none;fill-rule:nonzero;fill:rgb(0%,0%,0%);fill-opacity:1;" d="M 55.960938 14.863281 C 55.078125 15.085938 54.085938 16.011719 53.5625 17.074219 C 53.300781 17.601562 53.265625 17.863281 53.265625 19 C 53.265625 20.539062 53.449219 21.023438 54.417969 21.976562 C 55.265625 22.800781 55.875 23.023438 57.230469 23.050781 C 58.210938 23.0625 58.445312 23.011719 59.082031 22.726562 L 59.789062 22.386719 L 59.789062 22.886719 C 59.789062 23.914062 59.054688 24.789062 58.085938 24.949219 C 57.441406 25.050781 56.335938 24.738281 55.824219 24.300781 L 55.4375 23.976562 L 54.445312 24.511719 C 53.898438 24.8125 53.449219 25.113281 53.449219 25.199219 C 53.449219 25.425781 54.71875 26.550781 55.265625 26.8125 C 56.046875 27.1875 57.292969 27.3125 58.507812 27.148438 C 60.226562 26.925781 61.21875 26.3125 62.050781 25.011719 L 62.398438 24.449219 L 62.398438 15 L 61.230469 15 C 60.175781 15 60.050781 15.023438 59.890625 15.273438 L 59.703125 15.550781 L 58.90625 15.199219 C 58.050781 14.824219 56.707031 14.675781 55.960938 14.863281 Z M 58.308594 17 C 58.894531 17.164062 59.789062 18.113281 59.800781 18.585938 C 59.816406 18.789062 59.800781 19.074219 59.789062 19.25 C 59.679688 20.523438 58.160156 21.238281 56.929688 20.601562 C 56.222656 20.238281 56.0625 19.898438 56.0625 18.824219 C 56.0625 18 56.074219 17.949219 56.507812 17.550781 C 56.867188 17.210938 57.328125 16.960938 57.800781 16.886719 C 57.839844 16.875 58.0625 16.9375 58.308594 17 Z M 58.308594 17 "/>
<path style=" stroke:none;fill-rule:nonzero;fill:rgb(0%,0%,0%);fill-opacity:1;" d="M 66.527344 14.960938 C 65.832031 15.210938 64.773438 16.1875 64.390625 16.949219 C 64.117188 17.488281 64.078125 17.726562 64.078125 18.9375 C 64.078125 20.1875 64.101562 20.375 64.414062 20.9375 C 65.121094 22.273438 66.289062 23.011719 67.734375 23.039062 C 68.664062 23.050781 69.375 22.851562 69.945312 22.425781 C 70.453125 22.039062 70.578125 22.050781 70.628906 22.460938 L 70.667969 22.8125 L 71.945312 22.851562 L 73.214844 22.886719 L 73.214844 15 L 71.910156 15 C 70.617188 15 70.589844 15 70.480469 15.324219 L 70.355469 15.636719 L 70.007812 15.398438 C 69.125 14.773438 67.582031 14.585938 66.527344 14.960938 Z M 69.632812 17.1875 C 69.746094 17.226562 69.996094 17.5 70.195312 17.773438 C 70.679688 18.5 70.691406 19.386719 70.195312 20.039062 C 69.722656 20.664062 69.472656 20.761719 68.527344 20.773438 C 67.820312 20.773438 67.683594 20.738281 67.382812 20.449219 C 66.75 19.835938 66.589844 18.789062 67 17.9375 C 67.433594 17.023438 68.515625 16.710938 69.632812 17.1875 Z M 69.632812 17.1875 "/>
<path style=" stroke:none;fill-rule:nonzero;fill:rgb(0%,0%,0%);fill-opacity:1;" d="M 79.40625 14.914062 C 79.15625 15.011719 78.746094 15.210938 78.496094 15.363281 C 77.9375 15.6875 77.949219 15.6875 77.8125 15.3125 C 77.703125 15.011719 77.664062 15 76.507812 15 L 75.328125 15 L 75.328125 22.875 L 77.8125 22.875 L 77.8125 21.085938 C 77.824219 19.113281 77.976562 17.636719 78.210938 17.25 C 78.449219 16.875 79.195312 16.699219 79.703125 16.914062 C 80.535156 17.261719 80.597656 17.449219 80.699219 19.539062 C 80.734375 20.585938 80.785156 21.761719 80.785156 22.148438 L 80.796875 22.875 L 83.246094 22.875 L 83.308594 20.398438 C 83.382812 17.601562 83.457031 17.3125 84.179688 16.960938 C 84.8125 16.648438 85.273438 16.773438 85.832031 17.386719 L 86.277344 17.886719 L 86.265625 20.039062 C 86.265625 21.226562 86.253906 22.335938 86.265625 22.523438 L 86.265625 22.875 L 88.753906 22.875 L 88.753906 19.886719 C 88.753906 18 88.703125 16.761719 88.617188 16.488281 C 88.265625 15.460938 87.171875 14.8125 85.769531 14.8125 C 84.910156 14.8125 84.238281 15.101562 83.507812 15.800781 C 83.085938 16.199219 82.984375 16.199219 82.8125 15.800781 C 82.476562 15.085938 80.398438 14.550781 79.40625 14.914062 Z M 79.40625 14.914062 "/>
<path style=" stroke:none;fill-rule:nonzero;fill:rgb(0%,0%,0%);fill-opacity:1;" d="M 102.921875 14.949219 C 101.691406 15.398438 101.183594 16.050781 101.183594 17.210938 C 101.183594 18.398438 101.40625 18.636719 103.90625 20.023438 C 104.203125 20.1875 104.289062 20.324219 104.289062 20.613281 C 104.289062 20.914062 104.226562 21.011719 103.96875 21.074219 C 103.507812 21.1875 102.898438 21.0625 102.164062 20.699219 C 101.816406 20.523438 101.519531 20.375 101.503906 20.375 C 101.492188 20.375 101.28125 20.738281 101.046875 21.1875 C 100.535156 22.164062 100.585938 22.3125 101.566406 22.726562 C 102.164062 22.976562 102.414062 23 103.730469 22.960938 C 105.382812 22.925781 106.304688 22.636719 106.777344 22.023438 C 107.113281 21.613281 107.136719 19.585938 106.824219 19.136719 C 106.527344 18.710938 105.445312 18.0625 104.652344 17.835938 C 103.542969 17.511719 103.222656 16.914062 104.003906 16.613281 C 104.242188 16.523438 104.574219 16.539062 105.210938 16.664062 C 105.695312 16.761719 106.15625 16.8125 106.242188 16.789062 C 106.441406 16.710938 107.0625 15.363281 106.9375 15.238281 C 106.515625 14.835938 103.78125 14.636719 102.921875 14.949219 Z M 102.921875 14.949219 "/>
<path style=" stroke:none;fill-rule:nonzero;fill:rgb(0%,0%,0%);fill-opacity:1;" d="M 90.53125 17.613281 C 90.640625 21.261719 90.902344 21.925781 92.46875 22.675781 C 93.265625 23.050781 93.351562 23.0625 94.90625 23.0625 C 96.398438 23.0625 96.570312 23.039062 97.203125 22.726562 C 98.039062 22.324219 98.484375 21.914062 98.847656 21.210938 C 99.082031 20.738281 99.121094 20.425781 99.195312 17.9375 C 99.230469 16.425781 99.242188 15.148438 99.21875 15.085938 C 99.195312 15.039062 98.632812 15 97.949219 15 L 96.734375 15 L 96.65625 16.585938 C 96.621094 17.476562 96.535156 18.664062 96.472656 19.25 C 96.382812 20.148438 96.324219 20.335938 96.035156 20.574219 C 95.601562 20.960938 94.769531 21.074219 94.171875 20.824219 C 93.449219 20.523438 93.339844 20.085938 93.253906 17.351562 L 93.191406 15 L 90.457031 15 Z M 90.53125 17.613281 "/>
<path style=" stroke:none;fill-rule:nonzero;fill:rgb(0%,0%,0%);fill-opacity:1;" d="M 9.359375 18.136719 C 9.148438 18.351562 9.160156 19.289062 9.371094 19.8125 C 9.570312 20.289062 10.417969 21.460938 10.753906 21.75 C 10.964844 21.925781 10.976562 21.914062 10.890625 21.5 C 10.691406 20.574219 10.664062 20.148438 10.800781 20.074219 C 10.964844 19.960938 11.386719 20.175781 11.859375 20.613281 L 12.21875 20.9375 L 12.144531 20.386719 C 12.019531 19.375 10.902344 18.164062 9.992188 18.039062 C 9.683594 18 9.445312 18.039062 9.359375 18.136719 Z M 9.359375 18.136719 "/>
<path style=" stroke:none;fill-rule:nonzero;fill:rgb(0%,0%,0%);fill-opacity:1;" d="M 18.308594 18.210938 C 18.097656 18.335938 17.789062 18.613281 17.613281 18.824219 C 17.042969 19.511719 16.46875 20.75 16.71875 20.75 C 16.757812 20.75 17.105469 20.574219 17.488281 20.375 C 18.359375 19.898438 18.507812 20 18.222656 20.863281 C 17.886719 21.914062 17.972656 22.011719 18.597656 21.3125 C 19.601562 20.1875 20.085938 18.726562 19.640625 18.1875 C 19.429688 17.9375 18.792969 17.949219 18.308594 18.210938 Z M 18.308594 18.210938 "/>
<path style=" stroke:none;fill-rule:nonzero;fill:rgb(0%,0%,0%);fill-opacity:1;" d="M 7.84375 21.0625 C 7.621094 22.0625 7.730469 25.0625 8.003906 25.960938 C 8.304688 26.898438 9.273438 28.289062 10.042969 28.863281 C 11.25 29.773438 11.820312 29.925781 14.269531 29.976562 C 16.667969 30.023438 17.089844 29.9375 18.472656 29.175781 C 19.765625 28.460938 20.546875 27.386719 21.019531 25.6875 C 21.242188 24.863281 21.292969 24.386719 21.28125 23 C 21.269531 21.273438 21.167969 20.511719 20.945312 20.460938 C 20.871094 20.449219 20.808594 20.636719 20.785156 20.875 C 20.671875 22.335938 19.988281 25.074219 19.492188 26.039062 C 18.90625 27.210938 17.6875 28.039062 15.960938 28.449219 C 13.933594 28.925781 11.472656 28.289062 10.117188 26.914062 C 9.285156 26.085938 8.925781 24.960938 8.054688 20.5625 C 8.015625 20.425781 7.929688 20.625 7.84375 21.0625 Z M 7.84375 21.0625 "/>
<path style=" stroke:none;fill-rule:nonzero;fill:rgb(0%,0%,0%);fill-opacity:1;" d="M 11.148438 24.199219 C 10.914062 24.4375 11.832031 25.773438 12.605469 26.335938 C 13.414062 26.925781 15.5 26.875 16.433594 26.25 C 16.96875 25.886719 17.675781 24.949219 17.835938 24.398438 C 17.910156 24.125 17.898438 24.113281 17.316406 24.175781 C 16.992188 24.210938 16.382812 24.273438 15.972656 24.324219 L 15.238281 24.398438 L 15.636719 24.726562 C 16.074219 25.101562 16.148438 25.425781 15.824219 25.5625 C 15.363281 25.726562 14.097656 25.773438 13.574219 25.636719 C 12.890625 25.449219 12.804688 25.210938 13.25 24.738281 L 13.597656 24.375 L 13.289062 24.363281 C 12.953125 24.363281 12.355469 24.289062 11.671875 24.1875 C 11.421875 24.164062 11.1875 24.164062 11.148438 24.199219 Z M 11.148438 24.199219 "/>
</g>
</svg>
